<svg width="657.9px" height="122px" xmlns="http://www.w3.org/2000/svg" viewBox="-78.94687499999998 14 657.89375 122" style="background: rgba(0, 0, 0, 0)" preserveAspectRatio="xMidYMid"><defs><linearGradient id="editing-gradow-gradient" x1="0" x2="1" y1="0.5" y2="0.5" gradientUnits="objectBoundingBox"><stop offset="0" stop-color="#ff00ff"></stop><stop offset="1" stop-color="#00ffff"></stop></linearGradient><filter id="editing-gradow-filter" x="-100%" y="-100%" width="300%" height="300%"><feFlood flood-color="#fffcd9" result="flood"></feFlood><feComposite operator="in" in2="SourceAlpha" in="flood" result="shadow"></feComposite><feOffset dx="-4" dy="-4" in="SourceGraphic" result="offset-1"></feOffset><feOffset dx="4" dy="4" in="shadow" result="offset-2"></feOffset><feMerge><feMergeNode in="offset-2"></feMergeNode><feMergeNode in="offset-1"></feMergeNode></feMerge></filter></defs><g filter="url(#editing-gradow-filter)"><g transform="matrix(1.3,0,0,1.8,-34.5,212.5)"><path d="M -2.5 -59.1 L -16.4 -59.1 L -8.3 -101.4 L 5.8 -101.4 L -2.5 -59.1 Z M 53.3 -57.8 L 53.3 -57.8 L 53.3 -57.8 Q 45.5 -57.8 45.5 -63.9 L 45.5 -63.9 L 45.5 -63.9 Q 45.5 -66.5 46.7 -71.6 L 46.7 -71.6 L 46.7 -71.6 Q 47.8 -76.7 48.2 -78.7 L 48.2 -78.7 L 48.2 -78.7 Q 49.1 -83.4 49.1 -84.9 L 49.1 -84.9 L 49.1 -84.9 Q 49.1 -88.1 46.6 -88.1 L 46.6 -88.1 L 46.6 -88.1 Q 45 -88.1 43.5 -85.9 L 43.5 -85.9 L 43.5 -85.9 Q 41.9 -83.7 41.2 -79.3 L 41.2 -79.3 L 37.3 -59.1 L 24.8 -57.8 L 28.3 -75.3 L 28.3 -75.3 Q 28.8 -78.1 29.3 -81.4 L 29.3 -81.4 L 29.3 -81.4 Q 29.9 -84.7 29.9 -85.2 L 29.9 -85.2 L 29.9 -85.2 Q 29.9 -88.1 27.7 -88.1 L 27.7 -88.1 L 27.7 -88.1 Q 26.2 -88.1 24.6 -85.9 L 24.6 -85.9 L 24.6 -85.9 Q 23 -83.8 22.1 -79.3 L 22.1 -79.3 L 18.2 -59.1 L 5.6 -57.8 L 12.3 -91.8 L 22.7 -93 L 21.7 -86.6 L 21.7 -86.6 Q 23.3 -90 26.4 -91.5 L 26.4 -91.5 L 26.4 -91.5 Q 29.5 -93 34.3 -93 L 34.3 -93 L 34.3 -93 Q 37 -93 38.8 -91.7 L 38.8 -91.7 L 38.8 -91.7 Q 40.6 -90.4 41.2 -88.2 L 41.2 -88.2 L 41.2 -88.2 Q 42.3 -90.4 45.1 -91.7 L 45.1 -91.7 L 45.1 -91.7 Q 47.8 -93 51.3 -93 L 51.3 -93 L 51.3 -93 Q 54.7 -93 56.4 -92.3 L 56.4 -92.3 L 56.4 -92.3 Q 58.1 -91.6 59.1 -90.4 L 59.1 -90.4 L 59.1 -90.4 Q 60.8 -88.1 60.8 -84 L 60.8 -84 L 60.8 -84 Q 60.8 -80 59.1 -71.6 L 59.1 -71.6 L 59.1 -71.6 Q 58.2 -67.5 58.2 -66 L 58.2 -66 L 58.2 -66 Q 58.2 -64.5 59.1 -63.6 L 59.1 -63.6 L 59.1 -63.6 Q 59.9 -62.7 61.2 -62.6 L 61.2 -62.6 L 61.2 -62.6 Q 60.6 -60.4 58.4 -59.1 L 58.4 -59.1 L 58.4 -59.1 Q 56.2 -57.8 53.3 -57.8 Z M 68.9 -61 L 68.9 -61 L 68.9 -61 Q 67.4 -62.7 66.7 -65.3 L 66.7 -65.3 L 66.7 -65.3 Q 66.1 -68 66.1 -72.2 L 66.1 -72.2 L 66.1 -72.2 Q 66.1 -76.5 67.5 -80.4 L 67.5 -80.4 L 67.5 -80.4 Q 69 -84.3 71.7 -87.2 L 71.7 -87.2 L 71.7 -87.2 Q 77.2 -93 86.3 -93 L 86.3 -93 L 86.3 -93 Q 89.6 -93 91.9 -92 L 91.9 -92 L 102.9 -93 L 98.1 -68.1 L 98.1 -68.1 Q 97.9 -67.3 97.9 -65.9 L 97.9 -65.9 L 97.9 -65.9 Q 97.9 -64.5 98.8 -63.6 L 98.8 -63.6 L 98.8 -63.6 Q 99.7 -62.7 101 -62.6 L 101 -62.6 L 101 -62.6 Q 100.3 -60.4 98 -59.1 L 98 -59.1 L 98 -59.1 Q 95.6 -57.8 93 -57.8 L 93 -57.8 L 93 -57.8 Q 90.4 -57.8 88.6 -58.8 L 88.6 -58.8 L 88.6 -58.8 Q 86.9 -59.8 86.4 -61.5 L 86.4 -61.5 L 86.4 -61.5 Q 85.3 -59.9 83.2 -58.9 L 83.2 -58.9 L 83.2 -58.9 Q 81 -57.8 78.1 -57.8 L 78.1 -57.8 L 78.1 -57.8 Q 75.2 -57.8 72.8 -58.6 L 72.8 -58.6 L 72.8 -58.6 Q 70.4 -59.4 68.9 -61 Z M 82.4 -87 L 82.4 -87 L 82.4 -87 Q 81.7 -85.9 81.1 -83.9 L 81.1 -83.9 L 81.1 -83.9 Q 80.4 -82 79.4 -76.8 L 79.4 -76.8 L 79.4 -76.8 Q 78.3 -71.5 78.3 -67.8 L 78.3 -67.8 L 78.3 -67.8 Q 78.3 -64.1 78.9 -63 L 78.9 -63 L 78.9 -63 Q 79.5 -61.9 80.5 -61.9 L 80.5 -61.9 L 80.5 -61.9 Q 82.5 -61.9 84 -63.9 L 84 -63.9 L 84 -63.9 Q 85.5 -65.8 86.1 -69.3 L 86.1 -69.3 L 89.5 -88.1 L 89.5 -88.1 Q 88.2 -89.2 86.6 -89.2 L 86.6 -89.2 L 86.6 -89.2 Q 85 -89.2 84.1 -88.7 L 84.1 -88.7 L 84.1 -88.7 Q 83.2 -88.2 82.4 -87 Z M 110.6 -85.9 L 110.6 -85.9 L 110.6 -85.9 Q 112.8 -88.9 116.1 -91 L 116.1 -91 L 116.1 -91 Q 119.4 -93 123.4 -93 L 123.4 -93 L 123.4 -93 Q 127.5 -93 129.4 -91.8 L 129.4 -91.8 L 141.9 -93 L 137.6 -68.5 L 137.6 -68.5 Q 135.3 -55.9 130.6 -51 L 130.6 -51 L 130.6 -51 Q 126 -46.3 117.2 -46.3 L 117.2 -46.3 L 117.2 -46.3 Q 110.5 -46.3 106.7 -48.4 L 106.7 -48.4 L 106.7 -48.4 Q 102.8 -50.5 102.8 -54.1 L 102.8 -54.1 L 102.8 -54.1 Q 102.8 -56.7 104.8 -58.2 L 104.8 -58.2 L 104.8 -58.2 Q 106.8 -59.7 109.9 -59.7 L 109.9 -59.7 L 109.9 -59.7 Q 112.5 -59.7 114.6 -58.5 L 114.6 -58.5 L 114.6 -58.5 Q 115.8 -57.8 116.4 -56.9 L 116.4 -56.9 L 116.4 -56.9 Q 114.9 -55.7 114.9 -53.6 L 114.9 -53.6 L 114.9 -53.6 Q 114.9 -50.8 117.5 -50.8 L 117.5 -50.8 L 117.5 -50.8 Q 121.8 -50.8 124.2 -60.9 L 124.2 -60.9 L 124.2 -60.9 Q 124.9 -63.7 125.5 -66.4 L 125.5 -66.4 L 125.5 -66.4 Q 122.6 -62.9 116.1 -62.9 L 116.1 -62.9 L 116.1 -62.9 Q 111.5 -62.9 108.9 -65.1 L 108.9 -65.1 L 108.9 -65.1 Q 106.3 -67.3 106.3 -72.4 L 106.3 -72.4 L 106.3 -72.4 Q 106.3 -75.6 107.4 -79.2 L 107.4 -79.2 L 107.4 -79.2 Q 108.4 -82.8 110.6 -85.9 Z M 118.9 -72.2 L 118.9 -72.2 L 118.9 -72.2 Q 118.9 -67.8 121.2 -67.8 L 121.2 -67.8 L 121.2 -67.8 Q 122.7 -67.8 124.2 -69.5 L 124.2 -69.5 L 124.2 -69.5 Q 125.3 -70.8 125.8 -72.8 L 125.8 -72.8 L 129.1 -89.3 L 129.1 -89.3 Q 128.7 -89.3 128.4 -89.5 L 128.4 -89.5 L 128.4 -89.5 Q 127.8 -89.7 126.9 -89.7 L 126.9 -89.7 L 126.9 -89.7 Q 123 -89.7 120.7 -83.3 L 120.7 -83.3 L 120.7 -83.3 Q 118.9 -78.3 118.9 -72.2 Z M 170.3 -69.9 L 170.3 -69.9 L 170.3 -69.9 Q 171.9 -68.9 171.9 -66.5 L 171.9 -66.5 L 171.9 -66.5 Q 171.9 -64.1 170.7 -62.5 L 170.7 -62.5 L 170.7 -62.5 Q 169.5 -61 167.5 -60 L 167.5 -60 L 167.5 -60 Q 163.4 -57.8 159 -57.8 L 159 -57.8 L 159 -57.8 Q 154.6 -57.8 152 -58.8 L 152 -58.8 L 152 -58.8 Q 149.4 -59.8 147.7 -61.6 L 147.7 -61.6 L 147.7 -61.6 Q 144.3 -64.9 144.3 -71.2 L 144.3 -71.2 L 144.3 -71.2 Q 144.3 -80.8 149.5 -86.7 L 149.5 -86.7 L 149.5 -86.7 Q 155.2 -93 165 -93 L 165 -93 L 165 -93 Q 171 -93 174 -90.5 L 174 -90.5 L 174 -90.5 Q 176.3 -88.6 176.3 -85.4 L 176.3 -85.4 L 176.3 -85.4 Q 176.3 -74.2 156.8 -74.2 L 156.8 -74.2 L 156.8 -74.2 Q 156.6 -72.5 156.6 -71.1 L 156.6 -71.1 L 156.6 -71.1 Q 156.6 -68.1 157.9 -67 L 157.9 -67 L 157.9 -67 Q 159.2 -65.9 161.6 -65.9 L 161.6 -65.9 L 161.6 -65.9 Q 164.1 -65.9 166.7 -67 L 166.7 -67 L 166.7 -67 Q 169.2 -68.1 170.3 -69.9 Z M 157.3 -76.9 L 157.3 -76.9 L 157.3 -76.9 Q 161.8 -76.9 164.4 -79.7 L 164.4 -79.7 L 164.4 -79.7 Q 167.1 -82.4 167.1 -86.7 L 167.1 -86.7 L 167.1 -86.7 Q 167.1 -88.2 166.5 -89 L 166.5 -89 L 166.5 -89 Q 166 -89.8 164.9 -89.8 L 164.9 -89.8 L 164.9 -89.8 Q 163.8 -89.8 162.9 -89.4 L 162.9 -89.4 L 162.9 -89.4 Q 161.9 -88.9 161 -87.5 L 161 -87.5 L 161 -87.5 Q 158.6 -84.3 157.3 -76.9 Z M 197.6 -81.6 L 197.6 -81.6 L 197.6 -81.6 Q 198.5 -84 198.5 -86 L 198.5 -86 L 198.5 -86 Q 198.5 -89.8 195.4 -89.8 L 195.4 -89.8 L 195.4 -89.8 Q 193.8 -89.8 192.5 -88.3 L 192.5 -88.3 L 192.5 -88.3 Q 191.2 -86.9 191.2 -85.1 L 191.2 -85.1 L 191.2 -85.1 Q 191.2 -83.8 192.2 -82.8 L 192.2 -82.8 L 192.2 -82.8 Q 193.7 -81.4 197.5 -79.1 L 197.5 -79.1 L 197.5 -79.1 Q 201.2 -76.8 202.7 -74.9 L 202.7 -74.9 L 202.7 -74.9 Q 204.1 -73 204.1 -70.4 L 204.1 -70.4 L 204.1 -70.4 Q 204.1 -67.8 202.9 -65.5 L 202.9 -65.5 L 202.9 -65.5 Q 201.6 -63.1 199.4 -61.4 L 199.4 -61.4 L 199.4 -61.4 Q 194.6 -57.8 186.9 -57.8 L 186.9 -57.8 L 186.9 -57.8 Q 182.7 -57.8 179.5 -60 L 179.5 -60 L 179.5 -60 Q 176.3 -62.1 176.3 -64.6 L 176.3 -64.6 L 176.3 -64.6 Q 176.3 -67.1 178.2 -68.6 L 178.2 -68.6 L 178.2 -68.6 Q 180 -70.1 182.7 -70.1 L 182.7 -70.1 L 182.7 -70.1 Q 185.4 -70.1 187 -69 L 187 -69 L 187 -69 Q 186.2 -66.9 186.2 -65.5 L 186.2 -65.5 L 186.2 -65.5 Q 186.2 -61.3 189.8 -61.3 L 189.8 -61.3 L 189.8 -61.3 Q 191.3 -61.3 192.3 -62.3 L 192.3 -62.3 L 192.3 -62.3 Q 193.4 -63.2 193.4 -64.9 L 193.4 -64.9 L 193.4 -64.9 Q 193.4 -68.1 187.9 -71.6 L 187.9 -71.6 L 187.9 -71.6 Q 183.4 -74.5 182.4 -75.7 L 182.4 -75.7 L 182.4 -75.7 Q 180.6 -77.7 180.6 -80.3 L 180.6 -80.3 L 180.6 -80.3 Q 180.6 -82.9 181.9 -85.3 L 181.9 -85.3 L 181.9 -85.3 Q 183.1 -87.7 185.3 -89.5 L 185.3 -89.5 L 185.3 -89.5 Q 190 -93 198.1 -93 L 198.1 -93 L 198.1 -93 Q 202.3 -93 204.7 -91.4 L 204.7 -91.4 L 204.7 -91.4 Q 207.2 -89.7 207.2 -86.9 L 207.2 -86.9 L 207.2 -86.9 Q 207.2 -84.1 205.5 -82.5 L 205.5 -82.5 L 205.5 -82.5 Q 203.8 -80.9 200.7 -80.9 L 200.7 -80.9 L 200.7 -80.9 Q 198.6 -80.9 197.6 -81.6 Z M 248.7 -79.7 L 261.6 -80.9 L 261.6 -80.9 Q 257 -70.8 257 -59.1 L 257 -59.1 L 257 -59.1 Q 255.3 -57.8 252.7 -57.8 L 252.7 -57.8 L 252.7 -57.8 Q 250.2 -57.8 248.6 -59 L 248.6 -59 L 248.6 -59 Q 247 -60.2 246.7 -61.4 L 246.7 -61.4 L 246.7 -61.4 Q 245.1 -59.8 242.5 -58.8 L 242.5 -58.8 L 242.5 -58.8 Q 239.9 -57.8 237.1 -57.8 L 237.1 -57.8 L 237.1 -57.8 Q 234.4 -57.8 232 -58.7 L 232 -58.7 L 232 -58.7 Q 229.6 -59.6 227.7 -61.6 L 227.7 -61.6 L 227.7 -61.6 Q 223.6 -66 223.6 -74.2 L 223.6 -74.2 L 223.6 -74.2 Q 223.6 -87 230.5 -94.7 L 230.5 -94.7 L 230.5 -94.7 Q 237.5 -102.6 250 -102.6 L 250 -102.6 L 250 -102.6 Q 258.7 -102.6 261.7 -98.2 L 261.7 -98.2 L 261.7 -98.2 Q 262.7 -96.8 262.7 -95.1 L 262.7 -95.1 L 262.7 -95.1 Q 262.7 -93.4 261.9 -91.9 L 261.9 -91.9 L 261.9 -91.9 Q 261.2 -90.5 260.1 -89.3 L 260.1 -89.3 L 260.1 -89.3 Q 257.3 -86.8 253.9 -86.8 L 253.9 -86.8 L 253.9 -86.8 Q 252.6 -86.8 251.3 -87.2 L 251.3 -87.2 L 251.3 -87.2 Q 251.5 -89.1 251.5 -91.4 L 251.5 -91.4 L 251.5 -91.4 Q 251.5 -93.6 251.4 -94.6 L 251.4 -94.6 L 251.4 -94.6 Q 251.2 -95.7 250.8 -96.5 L 250.8 -96.5 L 250.8 -96.5 Q 250 -98.2 248.2 -98.2 L 248.2 -98.2 L 248.2 -98.2 Q 246.4 -98.2 244.3 -96.3 L 244.3 -96.3 L 244.3 -96.3 Q 242.3 -94.3 240.7 -91.1 L 240.7 -91.1 L 240.7 -91.1 Q 237.2 -84 237.2 -75.3 L 237.2 -75.3 L 237.2 -75.3 Q 237.2 -71.3 238.7 -68.5 L 238.7 -68.5 L 238.7 -68.5 Q 240.4 -65.5 243.4 -65.5 L 243.4 -65.5 L 243.4 -65.5 Q 244.4 -65.5 245.3 -66 L 245.3 -66 L 245.3 -66 Q 246.2 -66.5 246.6 -66.9 L 246.6 -66.9 L 248.7 -79.7 Z M 267.5 -61 L 267.5 -61 L 267.5 -61 Q 266 -62.7 265.3 -65.3 L 265.3 -65.3 L 265.3 -65.3 Q 264.7 -68 264.7 -72.2 L 264.7 -72.2 L 264.7 -72.2 Q 264.7 -76.5 266.1 -80.4 L 266.1 -80.4 L 266.1 -80.4 Q 267.6 -84.3 270.3 -87.2 L 270.3 -87.2 L 270.3 -87.2 Q 275.8 -93 284.9 -93 L 284.9 -93 L 284.9 -93 Q 288.2 -93 290.5 -92 L 290.5 -92 L 301.5 -93 L 296.7 -68.1 L 296.7 -68.1 Q 296.5 -67.3 296.5 -65.9 L 296.5 -65.9 L 296.5 -65.9 Q 296.5 -64.5 297.4 -63.6 L 297.4 -63.6 L 297.4 -63.6 Q 298.3 -62.7 299.5 -62.6 L 299.5 -62.6 L 299.5 -62.6 Q 298.9 -60.4 296.6 -59.1 L 296.6 -59.1 L 296.6 -59.1 Q 294.2 -57.8 291.6 -57.8 L 291.6 -57.8 L 291.6 -57.8 Q 289 -57.8 287.2 -58.8 L 287.2 -58.8 L 287.2 -58.8 Q 285.5 -59.8 285 -61.5 L 285 -61.5 L 285 -61.5 Q 283.9 -59.9 281.8 -58.9 L 281.8 -58.9 L 281.8 -58.9 Q 279.6 -57.8 276.7 -57.8 L 276.7 -57.8 L 276.7 -57.8 Q 273.8 -57.8 271.4 -58.6 L 271.4 -58.6 L 271.4 -58.6 Q 269 -59.4 267.5 -61 Z M 281 -87 L 281 -87 L 281 -87 Q 280.3 -85.9 279.6 -83.9 L 279.6 -83.9 L 279.6 -83.9 Q 279 -82 277.9 -76.8 L 277.9 -76.8 L 277.9 -76.8 Q 276.9 -71.5 276.9 -67.8 L 276.9 -67.8 L 276.9 -67.8 Q 276.9 -64.1 277.5 -63 L 277.5 -63 L 277.5 -63 Q 278 -61.9 279.1 -61.9 L 279.1 -61.9 L 279.1 -61.9 Q 281.1 -61.9 282.6 -63.9 L 282.6 -63.9 L 282.6 -63.9 Q 284.1 -65.8 284.7 -69.3 L 284.7 -69.3 L 288.1 -88.1 L 288.1 -88.1 Q 286.7 -89.2 285.2 -89.2 L 285.2 -89.2 L 285.2 -89.2 Q 283.6 -89.2 282.7 -88.7 L 282.7 -88.7 L 282.7 -88.7 Q 281.8 -88.2 281 -87 Z M 320.2 -62.6 L 320.2 -62.6 L 320.2 -62.6 Q 318.2 -57.8 311.9 -57.8 L 311.9 -57.8 L 311.9 -57.8 Q 308.7 -57.8 306.7 -60.1 L 306.7 -60.1 L 306.7 -60.1 Q 305 -61.9 305 -64.1 L 305 -64.1 L 305 -64.1 Q 305 -68.9 307.2 -79.3 L 307.2 -79.3 L 311.9 -103.9 L 324.9 -105.2 L 318.7 -72.8 L 318.7 -72.8 Q 317.6 -68.1 317.6 -66.4 L 317.6 -66.4 L 317.6 -66.4 Q 317.6 -62.8 320.2 -62.6 Z M 341 -62.6 L 341 -62.6 L 341 -62.6 Q 339 -57.8 332.6 -57.8 L 332.6 -57.8 L 332.6 -57.8 Q 329.4 -57.8 327.4 -60.1 L 327.4 -60.1 L 327.4 -60.1 Q 325.7 -61.9 325.7 -64.1 L 325.7 -64.1 L 325.7 -64.1 Q 325.7 -68.9 328 -79.3 L 328 -79.3 L 332.6 -103.9 L 345.6 -105.2 L 339.4 -72.8 L 339.4 -72.8 Q 338.3 -68.1 338.3 -66.4 L 338.3 -66.4 L 338.3 -66.4 Q 338.3 -62.8 341 -62.6 Z M 372.3 -69.9 L 372.3 -69.9 L 372.3 -69.9 Q 373.9 -68.9 373.9 -66.5 L 373.9 -66.5 L 373.9 -66.5 Q 373.9 -64.1 372.7 -62.5 L 372.7 -62.5 L 372.7 -62.5 Q 371.5 -61 369.5 -60 L 369.5 -60 L 369.5 -60 Q 365.4 -57.8 361 -57.8 L 361 -57.8 L 361 -57.8 Q 356.6 -57.8 354 -58.8 L 354 -58.8 L 354 -58.8 Q 351.4 -59.8 349.7 -61.6 L 349.7 -61.6 L 349.7 -61.6 Q 346.3 -64.9 346.3 -71.2 L 346.3 -71.2 L 346.3 -71.2 Q 346.3 -80.8 351.5 -86.7 L 351.5 -86.7 L 351.5 -86.7 Q 357.1 -93 366.9 -93 L 366.9 -93 L 366.9 -93 Q 373 -93 376 -90.5 L 376 -90.5 L 376 -90.5 Q 378.3 -88.6 378.3 -85.4 L 378.3 -85.4 L 378.3 -85.4 Q 378.3 -74.2 358.8 -74.2 L 358.8 -74.2 L 358.8 -74.2 Q 358.6 -72.5 358.6 -71.1 L 358.6 -71.1 L 358.6 -71.1 Q 358.6 -68.1 359.9 -67 L 359.9 -67 L 359.9 -67 Q 361.2 -65.9 363.6 -65.9 L 363.6 -65.9 L 363.6 -65.9 Q 366 -65.9 368.6 -67 L 368.6 -67 L 368.6 -67 Q 371.2 -68.1 372.3 -69.9 Z M 359.3 -76.9 L 359.3 -76.9 L 359.3 -76.9 Q 363.8 -76.9 366.4 -79.7 L 366.4 -79.7 L 366.4 -79.7 Q 369.1 -82.4 369.1 -86.7 L 369.1 -86.7 L 369.1 -86.7 Q 369.1 -88.2 368.5 -89 L 368.5 -89 L 368.5 -89 Q 368 -89.8 366.9 -89.8 L 366.9 -89.8 L 366.9 -89.8 Q 365.8 -89.8 364.9 -89.4 L 364.9 -89.4 L 364.9 -89.4 Q 363.9 -88.9 363 -87.5 L 363 -87.5 L 363 -87.5 Q 360.6 -84.3 359.3 -76.9 Z M 400.5 -77.1 L 400.5 -77.1 L 400.5 -77.1 Q 402.8 -81.2 402.8 -85.4 L 402.8 -85.4 L 402.8 -85.4 Q 402.8 -88.1 400.8 -88.1 L 400.8 -88.1 L 400.8 -88.1 Q 399.3 -88.1 397.7 -85.5 L 397.7 -85.5 L 397.7 -85.5 Q 396 -82.9 395.5 -79.5 L 395.5 -79.5 L 392.2 -59.1 L 378.9 -57.8 L 385.4 -91.8 L 396 -93 L 394.8 -86.6 L 394.8 -86.6 Q 398 -93 405 -93 L 405 -93 L 405 -93 Q 408.7 -93 410.7 -91.1 L 410.7 -91.1 L 410.7 -91.1 Q 412.8 -89.2 412.8 -85.3 L 412.8 -85.3 L 412.8 -85.3 Q 412.8 -81.3 410.2 -78.8 L 410.2 -78.8 L 410.2 -78.8 Q 407.6 -76.3 403.2 -76.3 L 403.2 -76.3 L 403.2 -76.3 Q 401.2 -76.3 400.5 -77.1 Z M 434.1 -66.4 L 434.1 -66.4 L 434.1 -66.4 Q 430.8 -62.9 424.7 -62.9 L 424.7 -62.9 L 424.7 -62.9 Q 417.1 -62.9 415.5 -68.5 L 415.5 -68.5 L 415.5 -68.5 Q 415 -70.1 415 -72 L 415 -72 L 415 -72 Q 415 -73.8 415.4 -75.8 L 415.4 -75.8 L 418.4 -91.8 L 431.4 -93 L 427.9 -74.4 L 427.9 -74.4 Q 427.7 -73.6 427.5 -72.7 L 427.5 -72.7 L 427.5 -72.7 Q 427.4 -71.8 427.4 -70.9 L 427.4 -70.9 L 427.4 -70.9 Q 427.4 -69.9 427.7 -69.3 L 427.7 -69.3 L 427.7 -69.3 Q 428 -68.7 428.4 -68.3 L 428.4 -68.3 L 428.4 -68.3 Q 429.2 -67.8 430.6 -67.8 L 430.6 -67.8 L 430.6 -67.8 Q 432 -67.8 433.1 -69.5 L 433.1 -69.5 L 433.1 -69.5 Q 434.3 -71.2 434.9 -74 L 434.9 -74 L 438.4 -91.8 L 451 -93 L 446.2 -67.9 L 446.2 -67.9 Q 443.9 -55.6 439 -50.7 L 439 -50.7 L 439 -50.7 Q 436.5 -48.2 433.3 -47.3 L 433.3 -47.3 L 433.3 -47.3 Q 430 -46.3 425.9 -46.3 L 425.9 -46.3 L 425.9 -46.3 Q 419.2 -46.3 415.3 -48.4 L 415.3 -48.4 L 415.3 -48.4 Q 411.5 -50.5 411.5 -54 L 411.5 -54 L 411.5 -54 Q 411.5 -56.6 413.5 -58.1 L 413.5 -58.1 L 413.5 -58.1 Q 415.5 -59.6 418.5 -59.6 L 418.5 -59.6 L 418.5 -59.6 Q 421.2 -59.6 423.3 -58.5 L 423.3 -58.5 L 423.3 -58.5 Q 424.5 -57.8 425.1 -56.9 L 425.1 -56.9 L 425.1 -56.9 Q 423.6 -55.6 423.6 -53.5 L 423.6 -53.5 L 423.6 -53.5 Q 423.6 -50.7 426.1 -50.7 L 426.1 -50.7 L 426.1 -50.7 Q 430.4 -50.7 432.8 -60.4 L 432.8 -60.4 L 432.8 -60.4 Q 433.5 -63.3 434.1 -66.4 Z" fill="url(#editing-gradow-gradient)"></path></g></g><style>text {
  font-size: 64px;
  font-family: Arial Black;
  dominant-baseline: central;
  text-anchor: middle;
}</style></svg>